<svg width="13" height="20" viewBox="0 0 13 20" fill="none" xmlns="http://www.w3.org/2000/svg">
<g id="Group">
<g id="Group_2">
<path id="Vector" d="M12.006 0.558082V0.556023C11.6521 0.200323 11.1712 0.000205934 10.6695 0H1.89048C0.847781 0.00339792 0.00339792 0.847781 0 1.89048V18.0419C0.000205935 18.5436 0.200323 19.0246 0.556024 19.3784C0.909356 19.7336 1.38949 19.9337 1.89048 19.9345H10.6715C11.1725 19.9337 11.6527 19.7336 12.006 19.3784C12.3612 19.0251 12.5612 18.545 12.562 18.044V1.89254C12.5612 1.39155 12.3612 0.911415 12.006 0.558082ZM6.28101 18.6515C5.99893 18.6515 5.77029 18.4228 5.77029 18.1408C5.77029 17.8587 5.99893 17.6301 6.28101 17.6301C6.56309 17.6301 6.79172 17.8587 6.79172 18.1408C6.79172 18.4228 6.56309 18.6515 6.28101 18.6515ZM11.0607 15.4451C11.0607 16.1275 10.5076 16.6807 9.82514 16.6807H2.73481C2.0524 16.6807 1.4992 16.1275 1.4992 15.4451V3.40822C1.4992 2.7258 2.0524 2.17261 2.73481 2.17261H9.8272C10.5096 2.17261 11.0628 2.7258 11.0628 3.40822L11.0607 15.4451Z" fill="#FCFCFD"/>
</g>
</g>
</svg>
