<svg width="24" height="22" viewBox="0 0 24 22" fill="none" xmlns="http://www.w3.org/2000/svg">
<g id="Group">
<path id="Vector" d="M0.370219 5.18507C0.142219 5.3076 0 5.54554 0 5.80438V20.3363C0 20.5834 0.130078 20.8121 0.341953 20.9391C0.553781 21.0661 0.817266 21.0725 1.03519 20.9561C1.05909 20.9433 3.4583 19.68 6.35156 19.68C8.57925 19.68 10.5137 20.4289 11.2969 20.7792V4.7204C10.2236 4.2981 8.41786 3.74188 6.35156 3.74188C3.09248 3.74188 0.479859 5.12615 0.370219 5.18507ZM9.16809 16.4426C9.09084 16.7652 8.80266 16.9821 8.48489 16.9821C8.4307 16.9821 8.37563 16.9758 8.32055 16.9626C7.40738 16.744 6.50831 16.6331 5.64839 16.6331C4.78847 16.6331 3.88945 16.744 2.97623 16.9626C2.59842 17.0532 2.21911 16.8202 2.12869 16.4426C2.03822 16.0649 2.27109 15.6855 2.64872 15.5951C3.66909 15.3507 4.67836 15.2268 5.64844 15.2268C6.61852 15.2268 7.62778 15.3508 8.64811 15.5951C9.02573 15.6855 9.25856 16.065 9.16809 16.4426ZM9.16809 13.63C9.09084 13.9526 8.80266 14.1695 8.48489 14.1695C8.4307 14.1695 8.37563 14.1632 8.32055 14.15C7.40738 13.9313 6.50831 13.8204 5.64839 13.8204C4.78847 13.8204 3.88945 13.9313 2.97623 14.15C2.59842 14.2406 2.21911 14.0076 2.12869 13.63C2.03822 13.2523 2.27109 12.8729 2.64872 12.7824C3.66909 12.5381 4.67836 12.4142 5.64844 12.4142C6.61852 12.4142 7.62778 12.5381 8.64811 12.7824C9.02573 12.8729 9.25856 13.2524 9.16809 13.63ZM9.16809 10.8173C9.09084 11.1399 8.80266 11.3569 8.48489 11.3569C8.4307 11.3569 8.37563 11.3505 8.32055 11.3374C7.40738 11.1187 6.50831 11.0078 5.64839 11.0078C4.78847 11.0078 3.88945 11.1187 2.97623 11.3374C2.59842 11.4279 2.21911 11.195 2.12869 10.8173C2.03822 10.4397 2.27109 10.0602 2.64872 9.96979C3.66909 9.72543 4.67836 9.60149 5.64844 9.60149C6.61852 9.60149 7.62778 9.72538 8.64811 9.96979C9.02573 10.0602 9.25856 10.4397 9.16809 10.8173ZM9.16809 8.00474C9.09084 8.32729 8.80266 8.54423 8.48489 8.54423C8.43066 8.54423 8.37563 8.5379 8.32055 8.52473C7.40742 8.30601 6.50836 8.1951 5.64844 8.1951C4.78852 8.1951 3.88945 8.30601 2.97628 8.52473C2.59884 8.61519 2.2192 8.38237 2.12873 8.00469C2.03827 7.62707 2.27109 7.24762 2.64877 7.15715C3.66909 6.91279 4.67836 6.78885 5.64848 6.78885C6.61861 6.78885 7.62788 6.91279 8.6482 7.15715C9.02573 7.24762 9.25856 7.62712 9.16809 8.00474Z" fill="#E15E50"/>
<path id="Vector_2" d="M23.6298 5.18507C23.5202 5.12615 20.9076 3.74188 17.6485 3.74188C15.5822 3.74188 13.7764 4.29815 12.7031 4.7204V20.7792C13.4863 20.4288 15.4208 19.68 17.6485 19.68C20.532 19.68 22.9248 20.9348 22.9645 20.9559C23.0685 21.0116 23.1827 21.0394 23.2969 21.0394C23.4219 21.0394 23.5468 21.0061 23.6577 20.9398C23.87 20.8129 24 20.5837 24 20.3363V5.80438C24 5.54554 23.8578 5.3076 23.6298 5.18507ZM21.8714 16.4426C21.7941 16.7652 21.5059 16.9821 21.1882 16.9821C21.1339 16.9821 21.0789 16.9758 21.0238 16.9626C20.1106 16.744 19.2116 16.6331 18.3517 16.6331C17.4918 16.6331 16.5927 16.744 15.6795 16.9626C15.3019 17.0531 14.9224 16.8202 14.832 16.4426C14.7415 16.0649 14.9744 15.6855 15.352 15.5951C16.3724 15.3507 17.3816 15.2268 18.3517 15.2268C19.3218 15.2268 20.331 15.3508 21.3514 15.5951C21.729 15.6855 21.9618 16.065 21.8714 16.4426ZM21.8714 13.63C21.7941 13.9526 21.5059 14.1695 21.1882 14.1695C21.1339 14.1695 21.0789 14.1632 21.0238 14.15C20.1106 13.9313 19.2116 13.8204 18.3517 13.8204C17.4918 13.8204 16.5927 13.9313 15.6795 14.15C15.3019 14.2406 14.9224 14.0076 14.832 13.63C14.7415 13.2523 14.9744 12.8729 15.352 12.7824C16.3724 12.5381 17.3816 12.4142 18.3517 12.4142C19.3218 12.4142 20.331 12.5381 21.3514 12.7824C21.729 12.8729 21.9618 13.2524 21.8714 13.63ZM21.8714 10.8173C21.7941 11.1399 21.5059 11.3569 21.1882 11.3569C21.1339 11.3569 21.0789 11.3505 21.0238 11.3374C20.1106 11.1187 19.2116 11.0078 18.3517 11.0078C17.4918 11.0078 16.5927 11.1187 15.6795 11.3374C15.3019 11.4279 14.9224 11.195 14.832 10.8173C14.7415 10.4397 14.9744 10.0602 15.352 9.96979C16.3724 9.72543 17.3816 9.60149 18.3517 9.60149C19.3218 9.60149 20.331 9.72538 21.3514 9.96979C21.729 10.0602 21.9618 10.4397 21.8714 10.8173ZM21.8714 8.00474C21.7941 8.32729 21.5059 8.54423 21.1882 8.54423C21.1339 8.54423 21.0789 8.5379 21.0238 8.52473C20.1107 8.30601 19.2116 8.1951 18.3517 8.1951C17.4918 8.1951 16.5927 8.30601 15.6795 8.52473C15.302 8.61519 14.9225 8.38237 14.832 8.00469C14.7415 7.62707 14.9744 7.24762 15.352 7.15715C16.3724 6.91279 17.3816 6.78885 18.3518 6.78885C19.3219 6.78885 20.3311 6.91279 21.3515 7.15715C21.729 7.24762 21.9618 7.62712 21.8714 8.00474Z" fill="#E15E50"/>
<path id="Vector_3" d="M6.35167 0.960571C3.5071 0.960571 1.89662 1.64584 1.82949 1.67499C1.57267 1.78656 1.40649 2.03987 1.40649 2.3199V3.2169C2.61573 2.78893 4.36538 2.3356 6.35167 2.3356C8.33092 2.3356 10.0894 2.79423 11.297 3.22051C11.297 3.22051 9.76571 0.960571 6.35167 0.960571Z" fill="#E15E50"/>
<path id="Vector_4" d="M22.5937 3.21691V2.31996C22.5937 2.03993 22.4275 1.78662 22.1707 1.67505C22.1035 1.64585 20.493 0.960632 17.6485 0.960632C14.2657 0.960632 12.7031 3.22057 12.7031 3.22057C13.9107 2.79429 15.6692 2.33566 17.6485 2.33566C19.6349 2.33562 21.3845 2.78894 22.5937 3.21691Z" fill="#E15E50"/>
</g>
</svg>
