<svg width="14" height="14" viewBox="0 0 14 14" fill="none" xmlns="http://www.w3.org/2000/svg">
<g id="Group">
<path id="Vector" d="M3.31913 13.4843V4.84017H0.448501V13.4843H3.31943H3.31913ZM1.88441 3.66017C2.88525 3.66017 3.50834 2.9964 3.50834 2.16688C3.4896 1.31846 2.88525 0.673218 1.90345 0.673218C0.920969 0.673218 0.279297 1.31846 0.279297 2.16681C0.279297 2.99633 0.90216 3.66009 1.8656 3.66009H1.88419L1.88441 3.66017ZM4.90806 13.4843H7.77846V8.65755C7.77846 8.39954 7.79719 8.14086 7.87302 7.95658C8.08045 7.44019 8.55276 6.90565 9.34596 6.90565C10.3844 6.90565 10.8001 7.69827 10.8001 8.86043V13.4843H13.6704V8.52802C13.6704 5.87303 12.2544 4.63752 10.3658 4.63752C8.81744 4.63752 8.1374 5.50372 7.75957 6.09368H7.77868V4.84047H4.90821C4.94567 5.65139 4.90798 13.4846 4.90798 13.4846L4.90806 13.4843Z" fill="#FCFCFD"/>
</g>
</svg>
