<svg width="22" height="22" viewBox="0 0 22 22" fill="none" xmlns="http://www.w3.org/2000/svg">
<g id="Group">
<path id="Vector" d="M5.01833 21.537V7.4903H0.35357V21.537H5.01882H5.01833ZM2.68693 5.57279C4.31329 5.57279 5.3258 4.49417 5.3258 3.1462C5.29536 1.76751 4.31329 0.718994 2.71786 0.718994C1.12133 0.718994 0.0786133 1.76751 0.0786133 3.14607C0.0786133 4.49405 1.09077 5.57267 2.65636 5.57267H2.68656L2.68693 5.57279ZM7.60035 21.537H12.2647V13.6935C12.2647 13.2743 12.2952 12.8539 12.4184 12.5545C12.7555 11.7153 13.523 10.8467 14.8119 10.8467C16.4994 10.8467 17.1749 12.1347 17.1749 14.0232V21.537H21.8392V13.483C21.8392 9.16868 19.5382 7.16098 16.4692 7.16098C13.9531 7.16098 12.848 8.56855 12.2341 9.52725H12.2651V7.49078H7.60059C7.66147 8.80853 7.60022 21.5375 7.60022 21.5375L7.60035 21.537Z" fill="#777E90"/>
</g>
</svg>
