<svg xmlns="http://www.w3.org/2000/svg" xmlns:xlink="http://www.w3.org/1999/xlink" id="Layer_1" x="0px" y="0px" viewBox="0 0 595.3 297.9" style="enable-background:new 0 0 595.3 297.9;" xml:space="preserve">
<style type="text/css">
	.st0{fill:#FFFFFF;}
</style>
<g>
	<path class="st0" d="M457.5,111.8c-5.3-2.4-11.6-0.4-14.6,4.7c-3.1,5.5-1.3,12.4,4.2,15.6c0.5,0.3,1.1,0.6,1.7,0.8l27.4,11.5   c2.4,1,5.8-0.7,7.8-4.1c1.4-2.4,1.7-5,1-6.9c-0.3-0.7-0.7-1.4-1.2-1.8l-0.1-0.1L460,113.4c-0.2-0.2-0.5-0.4-0.7-0.5   c-0.3-0.2-0.6-0.4-0.9-0.5C458.1,112.2,457.8,112,457.5,111.8 M455.5,118.1l23.7,15.2c1.9,1.2,2.6,3.4,1.7,5.1   c-1,1.7-3.4,2.2-5.4,1c0,0,0,0-0.1,0l-24.9-12.8l0,0c-0.1,0-0.1-0.1-0.2-0.1c-2.4-1.4-3.2-4.4-1.8-6.8c1.4-2.4,4.4-3.2,6.8-1.8   C455.3,118,455.3,118,455.5,118.1L455.5,118.1L455.5,118.1C455.4,118,455.4,118,455.5,118.1"></path>
	<path class="st0" d="M446.1,167c-4.7,3.4-6.2,9.8-3.2,15c3.2,5.5,10.1,7.3,15.6,4.2c0.5-0.3,1-0.7,1.5-1l23.7-18   c2.1-1.6,2.3-5.4,0.3-8.8c-1.4-2.4-3.5-4-5.5-4.4c-0.8-0.1-1.5-0.1-2.2,0.2l-0.2,0.1l-27.3,11.5c-0.3,0.1-0.6,0.2-0.8,0.3   c-0.3,0.1-0.6,0.3-0.9,0.5C446.7,166.6,446.4,166.8,446.1,167 M450.5,171.9l25-12.9c2-1.1,4.3-0.6,5.3,1.1c1,1.7,0.2,4-1.8,5.2   c0,0,0,0-0.1,0l-23.5,15.2l0,0c-0.1,0-0.1,0.1-0.2,0.1c-2.4,1.4-5.4,0.6-6.8-1.8c-1.4-2.4-0.6-5.4,1.8-6.8   C450.3,171.9,450.4,171.9,450.5,171.9L450.5,171.9C450.5,171.9,450.5,171.9,450.5,171.9"></path>
	<path class="st0" d="M488,204.4c0.6,5.8,5.4,10.3,11.4,10.3c6.3,0,11.4-5.1,11.4-11.4c0-0.6,0-1.2-0.1-1.8l-3.8-29.5h0   c-0.3-2.6-3.5-4.7-7.5-4.7c-2.8,0-5.2,1-6.5,2.6c-0.5,0.6-0.8,1.3-1,2l0,0.2l-3.7,29.4c0,0.3-0.1,0.6-0.1,0.9c0,0.3,0,0.7,0,1   C488,203.7,488,204,488,204.4 M494.4,203l1.4-28.1c0.1-2.2,1.7-4,3.6-4c2,0,3.6,1.9,3.6,4.2c0,0,0,0,0,0.1l1.4,28h0   c0,0.1,0,0.1,0,0.2c0,2.7-2.2,5-5,5c-2.7,0-5-2.2-5-5C494.4,203.2,494.4,203.2,494.4,203L494.4,203L494.4,203"></path>
	<path class="st0" d="M541.4,186.8c5.3,2.4,11.6,0.4,14.6-4.7c3.1-5.5,1.3-12.4-4.2-15.6c-0.5-0.3-1.1-0.6-1.7-0.8l-27.4-11.5h0   c-2.4-1-5.8,0.7-7.8,4.1c-1.4,2.4-1.7,5-1,6.9c0.3,0.7,0.7,1.4,1.3,1.8l0.1,0.1l23.6,17.9c0.2,0.2,0.5,0.4,0.7,0.5   c0.3,0.2,0.6,0.4,0.9,0.5C540.7,186.5,541.1,186.6,541.4,186.8 M543.4,180.6l-23.7-15.2c-1.9-1.2-2.6-3.4-1.7-5.1   c1-1.7,3.4-2.2,5.4-1c0,0,0,0,0.1,0l24.9,12.8v0c0.1,0,0.1,0.1,0.2,0.1c2.4,1.4,3.2,4.4,1.8,6.8c-1.4,2.4-4.4,3.2-6.8,1.8   C543.6,180.7,543.5,180.6,543.4,180.6L543.4,180.6L543.4,180.6C543.4,180.6,543.4,180.6,543.4,180.6"></path>
	<path class="st0" d="M552.8,131.8c4.7-3.4,6.2-9.8,3.2-15c-3.1-5.5-10.1-7.3-15.6-4.2c-0.5,0.3-1,0.7-1.5,1l-23.7,18   c-2.1,1.6-2.3,5.4-0.3,8.8c1.4,2.4,3.5,4,5.5,4.4c0.8,0.1,1.5,0.1,2.2-0.2l0.2-0.1l27.3-11.4c0.3-0.1,0.6-0.2,0.8-0.3   c0.3-0.1,0.6-0.3,0.9-0.5C552.2,132.2,552.5,132,552.8,131.8 M548.4,126.9l-25,12.9c-2,1.1-4.3,0.6-5.3-1.1c-1-1.7-0.2-4.1,1.8-5.2   c0,0,0,0,0.1,0l23.5-15.2l0,0c0,0,0.1-0.1,0.2-0.1c2.4-1.4,5.4-0.6,6.8,1.8c1.4,2.4,0.6,5.4-1.8,6.8   C548.6,126.8,548.5,126.9,548.4,126.9L548.4,126.9C548.5,126.9,548.4,126.9,548.4,126.9"></path>
	<path class="st0" d="M510.9,94.4c-0.6-5.8-5.4-10.3-11.4-10.3c-6.3,0-11.4,5.1-11.4,11.4c0,0.6,0,1.2,0.1,1.8l3.8,29.5l0,0   c0.3,2.6,3.6,4.7,7.5,4.7c2.8,0,5.2-1,6.5-2.6c0.5-0.6,0.8-1.3,1-2l0-0.2l3.7-29.4c0-0.3,0.1-0.6,0.1-0.9c0-0.3,0-0.7,0-1   C510.9,95.1,510.9,94.7,510.9,94.4 M504.5,95.7l-1.4,28.1c-0.1,2.2-1.7,4-3.6,4c-2,0-3.6-1.9-3.6-4.2c0,0,0-0.1,0-0.1l-1.4-28h0   c0-0.1,0-0.1,0-0.2c0-2.7,2.2-5,5-5c2.7,0,5,2.2,5,5C504.5,95.5,504.5,95.6,504.5,95.7L504.5,95.7L504.5,95.7   C504.5,95.7,504.5,95.7,504.5,95.7"></path>
	<path class="st0" d="M44,120.6h11.4l11.6,43.9l11.3-43.9h17.5v57.6H84.8v-46.5L73,178.2H61l-11.8-46.5v46.5H38.1v-51.4   C38.1,123.5,40.7,120.6,44,120.6"></path>
	<path class="st0" d="M107.5,126.8c0-4.1,1.9-6.2,5.9-6.2h5.8v57.6h-11.8V126.8z"></path>
	<path class="st0" d="M168.4,150.6c2.5,0.8,4.3,2.2,5.5,4c1,1.9,1.5,4.8,1.8,8.6l0.5,11.3c0.1,1.8,0.8,3.1,1.9,3.8h-13   c-0.6-1.1-0.9-2.3-0.9-3.5c-0.3-0.8-0.4-4.2-0.5-9.7c-0.4-7-1.7-9.2-8.6-9.2h-12.5v22.4h-11.8v-51.4c0-3.3,2.6-6.2,5.9-6.2h21.9   c12,0,18.6,4.6,18.6,16.4C177,144.3,173.9,149,168.4,150.6 M157,130.6h-14.6v15.2h13.9c5.6,0,8.7-2,8.7-7.6   C165.1,132.9,162.3,130.6,157,130.6"></path>
	<path class="st0" d="M220.6,120.6l20.7,57.6h-12.5l-3.8-11.8h-22.3l-3.8,11.8h-12.6l19.2-53.8c0.9-2.5,2.7-3.8,5.6-3.8H220.6z    M205.8,156.7h15.8l-8-24.5L205.8,156.7z"></path>
	<path class="st0" d="M316.2,120.6l-16.4,57.6h-11.3l-8.9-44.1l-9,44.1h-11.4l-16.4-57.6h12.3l9.7,40.6l8.5-40.6h12.5l8.3,40.6   l8.7-36.1c1-3,3-4.5,5.9-4.5H316.2z"></path>
	<path class="st0" d="M351.1,120.6l20.7,57.6h-12.5l-3.8-11.8h-22.3l-3.8,11.8h-12.6l19.2-53.8c0.8-2.5,2.7-3.8,5.6-3.8H351.1z    M336.4,156.7h15.9l-8-24.5L336.4,156.7z"></path>
	<path class="st0" d="M390.8,178.2v-21.5L370,120.6h14.4l12.5,24.8l9.8-21.4c1.1-2.3,2.9-3.5,5.4-3.5h9.7l-18.9,36.1v21.5H390.8z"></path>
	<path class="st0" d="M47.2,205.3c-0.5,0.2-1.5,0.5-2.9,0.5c-4,0-6-2.5-6-5.8c0-3.9,2.8-6.1,6.3-6.1c1.3,0,2.4,0.3,2.8,0.5l-0.5,2   c-0.5-0.2-1.2-0.4-2.2-0.4c-2,0-3.6,1.2-3.6,3.8c0,2.3,1.4,3.7,3.7,3.7c0.8,0,1.6-0.2,2.2-0.4L47.2,205.3z"></path>
	<path class="st0" d="M60.2,194.3c0.8-0.2,2.1-0.3,3.4-0.3c1.7,0,2.9,0.3,3.7,0.9c0.7,0.5,1.1,1.3,1.1,2.4c0,1.4-1,2.4-2,2.8v0   c0.8,0.3,1.2,1.1,1.5,2.1c0.4,1.3,0.7,2.8,0.9,3.2h-2.6c-0.2-0.3-0.5-1.3-0.8-2.7c-0.3-1.4-0.8-1.8-1.9-1.8h-0.8v4.5h-2.6V194.3z    M62.7,199.2h1c1.3,0,2.1-0.6,2.1-1.6c0-1-0.7-1.6-1.9-1.6c-0.6,0-1,0-1.2,0.1V199.2z"></path>
	<polygon class="st0" points="88.2,200.7 84,200.7 84,203.5 88.7,203.5 88.7,205.6 81.5,205.6 81.5,194.1 88.5,194.1 88.5,196.3    84,196.3 84,198.6 88.2,198.6  "></polygon>
	<path class="st0" d="M104.4,202.6l-0.8,2.9h-2.7l3.5-11.4h3.4l3.6,11.4h-2.8l-0.9-2.9H104.4z M107.3,200.7l-0.7-2.4   c-0.2-0.7-0.4-1.5-0.6-2.2h-0.1c-0.2,0.7-0.3,1.5-0.5,2.2l-0.7,2.4H107.3z"></path>
	<polygon class="st0" points="124.8,196.3 121.7,196.3 121.7,194.1 130.5,194.1 130.5,196.3 127.3,196.3 127.3,205.6 124.8,205.6     "></polygon>
	<rect x="143.1" y="194.1" class="st0" width="2.6" height="11.4"></rect>
	<path class="st0" d="M161.8,205.6l-3.7-11.4h2.8l1.4,4.8c0.4,1.4,0.7,2.7,1,4.1h0.1c0.3-1.4,0.6-2.7,1-4l1.5-4.9h2.8l-3.9,11.4   H161.8z"></path>
	<polygon class="st0" points="187.9,200.7 183.7,200.7 183.7,203.5 188.4,203.5 188.4,205.6 181.1,205.6 181.1,194.1 188.2,194.1    188.2,196.3 183.7,196.3 183.7,198.6 187.9,198.6  "></polygon>
	<polygon class="st0" points="217.6,196.3 214.5,196.3 214.5,194.1 223.3,194.1 223.3,196.3 220.2,196.3 220.2,205.6 217.6,205.6     "></polygon>
	<polygon class="st0" points="242.7,200.7 238.5,200.7 238.5,203.5 243.2,203.5 243.2,205.6 235.9,205.6 235.9,194.1 243,194.1    243,196.3 238.5,196.3 238.5,198.6 242.7,198.6  "></polygon>
	<path class="st0" d="M264.6,205.3c-0.5,0.2-1.5,0.5-2.9,0.5c-4,0-6-2.5-6-5.8c0-3.9,2.8-6.1,6.3-6.1c1.3,0,2.4,0.3,2.8,0.5l-0.5,2   c-0.5-0.2-1.2-0.4-2.2-0.4c-2,0-3.6,1.2-3.6,3.8c0,2.3,1.4,3.7,3.7,3.7c0.8,0,1.6-0.2,2.2-0.4L264.6,205.3z"></path>
	<polygon class="st0" points="280.1,194.1 280.1,198.5 284.4,198.5 284.4,194.1 286.9,194.1 286.9,205.6 284.4,205.6 284.4,200.8    280.1,200.8 280.1,205.6 277.5,205.6 277.5,194.1  "></polygon>
	<path class="st0" d="M300.4,205.6v-11.4h3l2.4,4.2c0.7,1.2,1.3,2.6,1.9,3.9h0c-0.2-1.5-0.2-3.1-0.2-4.8v-3.3h2.4v11.4h-2.7   l-2.4-4.4c-0.7-1.2-1.4-2.7-2-4h-0.1c0.1,1.5,0.1,3.1,0.1,5v3.4H300.4z"></path>
	<path class="st0" d="M328.2,205.8c-3.4,0-5.4-2.6-5.4-5.8c0-3.4,2.2-6,5.6-6c3.5,0,5.4,2.6,5.4,5.8   C333.8,203.5,331.6,205.8,328.2,205.8L328.2,205.8z M328.3,203.7c1.7,0,2.8-1.6,2.8-3.9c0-2.1-1-3.8-2.8-3.8   c-1.8,0-2.8,1.7-2.8,3.9C325.5,202,326.6,203.7,328.3,203.7L328.3,203.7z"></path>
	<polygon class="st0" points="346.7,194.1 349.3,194.1 349.3,203.4 353.9,203.4 353.9,205.6 346.7,205.6  "></polygon>
	<path class="st0" d="M370.8,205.8c-3.4,0-5.4-2.6-5.4-5.8c0-3.4,2.2-6,5.6-6c3.5,0,5.4,2.6,5.4,5.8   C376.4,203.5,374.2,205.8,370.8,205.8L370.8,205.8z M370.9,203.7c1.7,0,2.8-1.6,2.8-3.9c0-2.1-1-3.8-2.8-3.8   c-1.8,0-2.8,1.7-2.8,3.9C368.2,202,369.2,203.7,370.9,203.7L370.9,203.7z"></path>
	<path class="st0" d="M398.9,205.1c-0.8,0.3-2.3,0.6-3.8,0.6c-2.1,0-3.6-0.5-4.6-1.5c-1-1-1.6-2.5-1.6-4.2c0-3.8,2.8-6,6.5-6   c1.5,0,2.6,0.3,3.2,0.5l-0.5,2.1c-0.6-0.3-1.4-0.5-2.6-0.5c-2.2,0-3.8,1.2-3.8,3.7c0,2.4,1.5,3.8,3.6,3.8c0.6,0,1.1-0.1,1.3-0.2   V201h-1.8v-2h4.3V205.1z"></path>
	<path class="st0" d="M414.8,205.6v-4.7l-3.6-6.8h3l1.2,2.8c0.4,0.8,0.6,1.4,0.9,2.2h0c0.3-0.7,0.5-1.4,0.9-2.2l1.2-2.8h2.9   l-3.8,6.7v4.8H414.8z"></path>
</g>
</svg>