<svg width="71" height="80" viewBox="0 0 71 80" fill="none" xmlns="http://www.w3.org/2000/svg">
<g id="Group 16642">
<path id="Vector" d="M9.85597 17.007C6.63136 15.5372 2.75329 16.7314 0.945552 19.8731C-0.978219 23.2168 0.163825 27.4854 3.49836 29.4145C3.82204 29.6044 4.16404 29.7636 4.50605 29.8922L21.2703 36.935C22.7605 37.5658 24.837 36.4879 26.0401 34.3996C26.889 32.9236 27.0844 31.3191 26.6691 30.1617C26.5042 29.7023 26.2538 29.3165 25.9057 29.0348L25.8202 28.9736L11.4133 17.9807C11.2728 17.8643 11.1263 17.7541 10.9736 17.65C10.8087 17.5336 10.6377 17.4234 10.4545 17.3193C10.259 17.2029 10.0575 17.0988 9.84985 17.007M8.6223 20.8162L23.0781 30.1494C24.2323 30.8721 24.6904 32.2561 24.098 33.285C23.4934 34.3383 22.0154 34.62 20.8001 33.9219C20.7879 33.9219 20.7756 33.9096 20.7634 33.9035L5.55649 26.0646C5.51984 26.0462 5.48932 26.0279 5.45268 26.0095C4.00527 25.1705 3.50447 23.3087 4.34116 21.8573C5.17785 20.3997 7.03444 19.9037 8.48796 20.7427C8.51849 20.7611 8.55512 20.7856 8.58566 20.8039H8.59788C8.59788 20.8039 8.6101 20.8223 8.61621 20.8223" fill="#E55D4F"/>
<path id="Vector_2" d="M2.91177 50.7939C0.0291712 52.8577 -0.874708 56.8262 0.933025 59.9679C2.8568 63.3117 7.11964 64.4508 10.4481 62.5217C10.7779 62.3318 11.0832 62.1175 11.3702 61.8847L25.8321 50.8551C27.1269 49.8753 27.2307 47.5297 26.0275 45.4414C25.1786 43.9654 23.8839 42.9917 22.6808 42.7773C22.2044 42.6916 21.7464 42.7161 21.3311 42.8815L21.2334 42.9243L4.54239 49.9365C4.37139 49.9977 4.20039 50.0712 4.0355 50.1508C3.85228 50.2366 3.66907 50.3346 3.48585 50.4326C3.29042 50.5489 3.10108 50.6714 2.91787 50.8061M5.59283 53.7764L20.8792 45.8884C22.0823 45.2454 23.5053 45.5393 24.0977 46.5682C24.7023 47.6216 24.2076 49.0485 22.9984 49.7528C22.9862 49.7589 22.9739 49.765 22.9617 49.7711L8.58536 59.0554C8.55482 59.0738 8.51819 59.0983 8.48154 59.1166C7.03414 59.9556 5.17755 59.4596 4.34086 58.0082C3.50417 56.5506 3.99886 54.695 5.45237 53.856C5.48291 53.8376 5.51954 53.8192 5.55619 53.8008H5.56839C5.56839 53.8008 5.58063 53.7886 5.58673 53.7825" fill="#3283C3"/>
<path id="Vector_3" d="M28.5196 73.6983C28.8616 77.2381 31.8358 80 35.4512 80C39.2988 80 42.4135 76.8767 42.4135 73.0124C42.4135 72.6327 42.3829 72.2591 42.3218 71.8978L40.0255 53.8254C39.8301 52.2147 37.8575 50.947 35.4512 50.947C33.7473 50.947 32.2633 51.5839 31.4693 52.5209C31.1579 52.8884 30.9563 53.3048 30.883 53.7458L30.8708 53.8499L28.5806 71.8549C28.5501 72.0325 28.5257 72.2101 28.5134 72.3938C28.4951 72.5959 28.4829 72.8042 28.4829 73.0124C28.4829 73.2451 28.4951 73.4717 28.5196 73.6922M32.422 72.8532L33.2526 55.632C33.2954 54.2725 34.2603 53.1824 35.4512 53.1824C36.6421 53.1824 37.6498 54.3215 37.6498 55.73V55.7729L38.4804 72.896C38.4804 72.9389 38.4804 72.9757 38.4804 73.0124C38.4804 74.6904 37.1246 76.05 35.4512 76.05C33.7779 76.05 32.416 74.6904 32.416 73.0124C32.416 72.9757 32.416 72.9328 32.416 72.896V72.8838V72.8593" fill="#77439A"/>
<path id="Vector_4" d="M61.1134 62.9135C64.338 64.3833 68.21 63.1891 70.0238 60.0474C71.9476 56.7036 70.8055 52.4351 67.4771 50.506C67.1473 50.3161 66.8114 50.1569 66.4633 50.0222L49.7051 42.9794C48.2149 42.3486 46.1385 43.4264 44.9354 45.5148C44.0865 46.9907 43.891 48.5952 44.3063 49.7588C44.4712 50.212 44.7277 50.5978 45.0697 50.8795L45.1552 50.9469L59.556 61.9336C59.6965 62.05 59.8431 62.1602 59.9958 62.2643C60.1668 62.3807 60.3377 62.4971 60.5149 62.6012C60.7164 62.7175 60.9118 62.8216 61.1195 62.9135M62.347 59.1043L47.8913 49.7711C46.737 49.0484 46.279 47.6705 46.8714 46.6355C47.476 45.5821 48.9539 45.2943 50.1693 46.0047C50.1815 46.0047 50.1937 46.0169 50.2059 46.0231L65.4067 53.862C65.4434 53.8865 65.48 53.9049 65.5106 53.9171C66.958 54.7622 67.4588 56.6179 66.6221 58.0754C65.7854 59.5268 63.9288 60.029 62.4814 59.19C62.4447 59.1716 62.4142 59.1472 62.3837 59.1288L62.3715 59.1226C62.3653 59.1226 62.3592 59.1165 62.3531 59.1104" fill="#E55D4F"/>
<path id="Vector_5" d="M68.0883 29.2184C70.9709 27.1484 71.8747 23.1861 70.067 20.0444C68.1432 16.7067 63.8804 15.5615 60.552 17.4906C60.2283 17.6805 59.9169 17.8948 59.6298 18.1275L45.1679 29.1633C43.8793 30.1431 43.7694 32.4887 44.9725 34.577C45.8275 36.0529 47.1161 37.0267 48.3254 37.2471C48.8017 37.3329 49.2598 37.3023 49.6751 37.143L49.7728 37.1002L66.4699 30.088C66.6409 30.0206 66.8058 29.9533 66.9707 29.8737C67.1539 29.7879 67.3432 29.6899 67.5203 29.5919C67.7219 29.4756 67.9112 29.3531 68.0944 29.2245M65.4194 26.2543L50.1331 34.1422C48.9361 34.7852 47.5131 34.4913 46.9207 33.4624C46.31 32.4091 46.8047 30.9821 48.02 30.2778C48.0322 30.2778 48.0444 30.2656 48.0566 30.2595L62.4269 20.9753C62.4269 20.9753 62.4941 20.9385 62.5246 20.914C63.9781 20.075 65.8286 20.5711 66.6653 22.0286C67.5081 23.4862 67.0073 25.3418 65.5538 26.1808C65.5233 26.1992 65.4866 26.2175 65.45 26.2359H65.4378C65.4378 26.2359 65.4255 26.2543 65.4194 26.2543Z" fill="#3283C3"/>
<path id="Vector_6" d="M42.4747 6.30788C42.1327 2.76811 39.1585 0 35.543 0C31.6955 0 28.5808 3.12331 28.5808 6.98765C28.5808 7.36735 28.6113 7.74094 28.6724 8.10839L30.9687 26.1869C31.1703 27.7976 33.1368 29.0653 35.543 29.0653C37.2408 29.0653 38.731 28.4345 39.5188 27.4914C39.8303 27.1239 40.0379 26.7075 40.1051 26.2665L40.1173 26.1624L42.4075 8.15737C42.4381 7.97365 42.4625 7.79606 42.4808 7.61233C42.4991 7.41023 42.5052 7.20201 42.5052 6.99378C42.5052 6.76719 42.493 6.53448 42.4747 6.31401M38.5661 7.15302L37.7355 24.3742C37.6928 25.7399 36.7217 26.83 35.5369 26.83C34.3521 26.83 33.3383 25.6909 33.3383 24.2823V24.2517L32.5016 7.11627C32.5016 7.07953 32.5016 7.03666 32.5016 6.99991C32.5016 5.32189 33.8574 3.96233 35.5308 3.96233C37.2042 3.96233 38.56 5.32189 38.56 6.99991C38.56 7.04278 38.56 7.07953 38.56 7.11627V7.13465C38.56 7.13465 38.56 7.14688 38.56 7.15913" fill="#77439A"/>
</g>
</svg>
