<svg width="20" height="21" viewBox="0 0 20 21" fill="none" xmlns="http://www.w3.org/2000/svg">
<g id="Group">
<g id="Group_2">
<path id="Vector" d="M19.4513 14.6906L16.6578 11.8971C15.6602 10.8994 13.9642 11.2985 13.5651 12.5955C13.2658 13.4934 12.2681 13.9922 11.3702 13.7927C9.37492 13.2938 6.68124 10.6999 6.18241 8.60482C5.88311 7.70689 6.48171 6.70923 7.3796 6.40997C8.67656 6.01091 9.07563 4.31488 8.07797 3.31722L5.28452 0.523772C4.48639 -0.174591 3.28919 -0.174591 2.59083 0.523772L0.695277 2.41933C-1.20028 4.41465 0.894809 9.70225 5.58381 14.3913C10.2728 19.0803 15.5604 21.2752 17.5557 19.2798L19.4513 17.3842C20.1497 16.5861 20.1497 15.3889 19.4513 14.6906Z" fill="#FCFCFD"/>
</g>
</g>
</svg>
