<svg width="52" height="52" viewBox="0 0 52 52" fill="none" xmlns="http://www.w3.org/2000/svg">
<g id="Social Media">
<path id="Subtract" fill-rule="evenodd" clip-rule="evenodd" d="M37.8416 16.2194C39.1194 16.5645 40.1237 17.5714 40.4632 18.8477C41.0809 21.1641 41.0809 26.0001 41.0809 26.0001C41.0809 26.0001 41.0809 30.8361 40.4632 33.1525C40.119 34.4335 39.1147 35.4405 37.8416 35.7808C35.5311 36.4001 26.2609 36.4001 26.2609 36.4001C26.2609 36.4001 16.9955 36.4001 14.6803 35.7808C13.4025 35.4357 12.3981 34.4288 12.0586 33.1525C11.4409 30.8361 11.4409 26.0001 11.4409 26.0001C11.4409 26.0001 11.4409 21.1641 12.0586 18.8477C12.4028 17.5666 13.4072 16.5597 14.6803 16.2194C16.9955 15.6001 26.2609 15.6001 26.2609 15.6001C26.2609 15.6001 35.5311 15.6001 37.8416 16.2194ZM23.4343 30.444L31.1314 26.0001L23.4343 21.5562V30.444Z" fill="#777E90"/>
<rect x="0.8125" y="0.8125" width="50.375" height="50.375" rx="25.1875" stroke="#E6E8EC" stroke-width="1.625"/>
</g>
</svg>
