<svg width="32" height="32" viewBox="0 0 32 32" fill="none" xmlns="http://www.w3.org/2000/svg">
<g id="Social Media">
<path id="Subtract" fill-rule="evenodd" clip-rule="evenodd" d="M23.2871 9.98119C24.0734 10.1936 24.6915 10.8132 24.9004 11.5986C25.2805 13.0241 25.2805 16.0001 25.2805 16.0001C25.2805 16.0001 25.2805 18.9761 24.9004 20.4016C24.6886 21.1899 24.0705 21.8096 23.2871 22.019C21.8653 22.4001 16.1605 22.4001 16.1605 22.4001C16.1605 22.4001 10.4587 22.4001 9.03399 22.019C8.24763 21.8066 7.62957 21.187 7.42065 20.4016C7.04053 18.9761 7.04053 16.0001 7.04053 16.0001C7.04053 16.0001 7.04053 13.0241 7.42065 11.5986C7.63247 10.8103 8.25053 10.1906 9.03399 9.98119C10.4587 9.6001 16.1605 9.6001 16.1605 9.6001C16.1605 9.6001 21.8653 9.6001 23.2871 9.98119ZM14.4211 18.7348L19.1577 16.0001L14.4211 13.2653L14.4211 18.7348Z" fill="#FCFCFD"/>
<rect x="0.5" y="0.5" width="31" height="31" rx="15.5" stroke="#FCFCFD"/>
</g>
</svg>
