<svg width="36" height="36" viewBox="0 0 36 36" fill="none" xmlns="http://www.w3.org/2000/svg">
<g id="Group">
<g id="Group_2">
<path id="Vector" d="M9.77194 14.1601C9.88165 14.0504 10.0462 13.8309 10.1011 13.7212L10.1559 13.6664C10.5399 13.1178 10.5948 12.679 10.5948 12.1305V11.8562H0.775904V13.9407H7.57779L0.830761 22.2784C0.611346 22.6076 0.446777 22.8818 0.446777 23.5401V24.0886H9.77194C10.2108 24.0886 10.5948 23.7046 10.5948 23.2658V22.1139H3.40889L9.77194 14.1601Z" fill="#777E90"/>
<path id="Vector_2" d="M22.3884 23.3755C22.3884 23.7595 22.7175 24.0886 23.1015 24.0886H24.5277V11.8562H22.3884V23.3755Z" fill="#777E90"/>
<path id="Vector_3" d="M30.7263 14.4891C28.0385 14.4891 25.8992 16.6833 25.8992 19.3163C25.8992 21.9493 28.0933 24.1434 30.7263 24.1434C33.4142 24.1434 35.5535 21.9493 35.5535 19.3163C35.5535 16.6833 33.4142 14.4891 30.7263 14.4891ZM30.7263 22.2235C29.1356 22.2235 27.8739 20.9619 27.8739 19.3711C27.8739 17.7804 29.1356 16.5187 30.7263 16.5187C32.3171 16.5187 33.5787 17.7804 33.5787 19.3711C33.5787 20.907 32.3171 22.2235 30.7263 22.2235Z" fill="#777E90"/>
<path id="Vector_4" d="M18.7133 15.5315C17.9454 14.9281 16.958 14.599 15.8609 14.599C13.2279 14.599 11.0886 16.7383 11.0886 19.3713C11.0886 22.0043 13.2279 24.1436 15.8609 24.1436C16.9031 24.1436 17.8905 23.8145 18.7133 23.2111V23.2659C18.7133 23.7047 19.0973 24.0887 19.5361 24.0887H20.6881V14.8184H18.7133V15.5315ZM15.9158 22.2237C14.3799 22.2237 13.1182 20.9621 13.1182 19.4261C13.1182 17.8902 14.3799 16.6286 15.9158 16.6286C17.4517 16.6286 18.7133 17.8902 18.7133 19.4261C18.7133 20.9621 17.4517 22.2237 15.9158 22.2237Z" fill="#777E90"/>
</g>
</g>
</svg>
