<svg width="22" height="22" viewBox="0 0 22 22" fill="none" xmlns="http://www.w3.org/2000/svg">
<g id="Group">
<g id="Group_2">
<path id="Vector" d="M5.93681 8.63701C6.00432 8.56949 6.10559 8.43447 6.13935 8.36695L6.1731 8.3332C6.4094 7.99563 6.44315 7.72558 6.44315 7.38802V7.21924H0.400782V8.50198H4.58656L0.43454 13.6329C0.299515 13.8355 0.198242 14.0042 0.198242 14.4093V14.7469H5.93681C6.20686 14.7469 6.44315 14.5106 6.44315 14.2405V13.5317H2.02108L5.93681 8.63701Z" fill="#FCFCFD"/>
<path id="Vector_2" d="M13.7007 14.3081C13.7007 14.5443 13.9032 14.7469 14.1395 14.7469H15.0172V7.21924H13.7007V14.3081Z" fill="#FCFCFD"/>
<path id="Vector_3" d="M18.8319 8.83948C17.1778 8.83948 15.8613 10.1897 15.8613 11.81C15.8613 13.4303 17.2116 14.7806 18.8319 14.7806C20.4859 14.7806 21.8024 13.4303 21.8024 11.81C21.8024 10.1897 20.4859 8.83948 18.8319 8.83948ZM18.8319 13.5991C17.853 13.5991 17.0766 12.8227 17.0766 11.8438C17.0766 10.8649 17.853 10.0885 18.8319 10.0885C19.8108 10.0885 20.5872 10.8649 20.5872 11.8438C20.5872 12.789 19.8108 13.5991 18.8319 13.5991Z" fill="#FCFCFD"/>
<path id="Vector_4" d="M11.4392 9.4809C10.9666 9.10959 10.359 8.90704 9.68387 8.90704C8.06357 8.90704 6.74707 10.2235 6.74707 11.8438C6.74707 13.4641 8.06357 14.7806 9.68387 14.7806C10.3252 14.7806 10.9328 14.5781 11.4392 14.2068V14.2405C11.4392 14.5106 11.6755 14.7469 11.9455 14.7469H12.6544V9.04207H11.4392V9.4809ZM9.71763 13.5992C8.77245 13.5992 7.99606 12.8228 7.99606 11.8776C7.99606 10.9324 8.77245 10.156 9.71763 10.156C10.6628 10.156 11.4392 10.9324 11.4392 11.8776C11.4392 12.8228 10.6628 13.5992 9.71763 13.5992Z" fill="#FCFCFD"/>
</g>
</g>
</svg>
